<?xml version="1.0" encoding="UTF-8" standalone="no"?>
<svg width="26px" height="26px" viewBox="0 0 26 26" version="1.1" xmlns="http://www.w3.org/2000/svg" xmlns:xlink="http://www.w3.org/1999/xlink">
    <!-- Generator: Sketch 41 (35326) - http://www.bohemiancoding.com/sketch -->
    <title>Artboard</title>
    <desc>Created with Sketch.</desc>
    <defs>
        <polygon id="path-1" points="24 12.000048 24 24 0 24 0 12.000048 0 9.6e-05 24 9.6e-05"></polygon>
    </defs>
    <g id="Page-1" stroke="none" stroke-width="1" fill="none" fill-rule="evenodd">
        <g id="Artboard">
            <g id="Page-1-Copy-5" transform="translate(1.000000, 1.000000)">
                <path d="M10.035744,17.64096 C10.300704,17.22096 10.591104,16.68096 10.738944,16.14192 C10.824384,15.83184 11.230944,14.21952 11.230944,14.21952 C11.473824,14.68272 12.185184,15.09072 12.938784,15.09072 C15.187104,15.09072 16.712544,13.04016 16.712544,10.296 C16.712544,8.22048 14.955264,6.288 12.285024,6.288 C8.962944,6.288 7.287264,8.67168 7.287264,10.65936 C7.287264,11.86224 7.742304,12.93168 8.719104,13.33248 C8.878944,13.39728 9.023424,13.33344 9.069504,13.1568 C9.101664,13.03344 9.178944,12.72432 9.212064,12.5952 C9.259104,12.42 9.240864,12.35856 9.111264,12.20544 C8.829984,11.87328 8.649984,11.44272 8.649984,10.83264 C8.649984,9.06528 9.971424,7.48272 12.093024,7.48272 C13.970784,7.48272 15.003264,8.6304 15.003264,10.16304 C15.003264,12.18096 14.110464,13.884 12.786144,13.884 C12.054144,13.884 11.506464,13.27824 11.681664,12.53616 C11.891424,11.6496 12.299904,10.69296 12.299904,10.05264 C12.299904,9.48096 11.991744,9.00288 11.355264,9.00288 C10.607904,9.00288 10.006464,9.7776 10.006464,10.81392 C10.006464,11.47488 10.230144,11.9208 10.230144,11.9208 C10.230144,11.9208 9.464544,15.1656 9.330624,15.73392 C9.204864,16.2648 9.189024,16.85232 9.208704,17.34048 C9.209664,17.33952 9.407904,17.90688 10.035744,17.64096" id="Fill-1" fill="#FFFFFF"></path>
                <g id="Group-5">
                    <mask id="mask-2" fill="white">
                        <use xlink:href="#path-1"></use>
                    </mask>
                    <g id="Clip-4"></g>
                    <path d="M12,0.833856 C5.84304,0.833856 0.83376,5.842656 0.83376,12.000096 C0.83376,18.157056 5.84304,23.166336 12,23.166336 C18.15696,23.166336 23.16624,18.157056 23.16624,12.000096 C23.16624,5.842656 18.15696,0.833856 12,0.833856 M12,24.000096 C5.3832,24.000096 0,18.616896 0,12.000096 C0,5.383296 5.3832,9.6e-05 12,9.6e-05 C18.6168,9.6e-05 24,5.383296 24,12.000096 C24,18.616896 18.6168,24.000096 12,24.000096" id="Fill-3" fill="#FFFFFF" mask="url(#mask-2)"></path>
                </g>
            </g>
        </g>
    </g>
</svg>