<?xml version="1.0" encoding="UTF-8" standalone="no"?>
<svg width="31px" height="31px" viewBox="0 0 31 31" version="1.1" xmlns="http://www.w3.org/2000/svg" xmlns:xlink="http://www.w3.org/1999/xlink" xmlns:sketch="http://www.bohemiancoding.com/sketch/ns">
    <!-- Generator: Sketch 3.5.1 (25234) - http://www.bohemiancoding.com/sketch -->
    <title>Group</title>
    <desc>Created with Sketch.</desc>
    <defs></defs>
    <g id="Page-1" stroke="none" stroke-width="1" fill="none" fill-rule="evenodd" sketch:type="MSPage">
        <g id="Desktop-1280" sketch:type="MSArtboardGroup" transform="translate(-897.000000, -3717.000000)" fill="#FFFFFF">
            <g id="FOOTER" sketch:type="MSLayerGroup" transform="translate(-344.000000, 3599.000000)">
                <g id="Group-4" transform="translate(1165.000000, 86.000000)" sketch:type="MSShapeGroup">
                    <g id="iconos-redes" transform="translate(1.000000, 32.000000)">
                        <g id="Group" transform="translate(75.000000, 0.000000)">
                            <path d="M15.2087,1.7286 C7.6087,1.7286 1.4257,7.9116 1.4257,15.5106 C1.4257,23.1106 7.6087,29.2936 15.2087,29.2936 C22.8087,29.2936 28.9907,23.1106 28.9907,15.5106 C28.9907,7.9116 22.8087,1.7286 15.2087,1.7286 M15.2087,30.3226 C7.0417,30.3226 0.3967,23.6786 0.3967,15.5106 C0.3967,7.3436 7.0417,0.6996 15.2087,0.6996 C23.3757,0.6996 30.0207,7.3436 30.0207,15.5106 C30.0207,23.6786 23.3757,30.3226 15.2087,30.3226" id="Fill-4"></path>
                            <path d="M13.5854,14.2542 C14.1184,14.2352 14.5624,14.0432 14.9174,13.6802 C15.0884,13.4232 15.1994,13.1592 15.2474,12.8892 C15.2774,12.6192 15.2924,12.3932 15.2924,12.2072 C15.2924,11.4082 15.0874,10.6052 14.6794,9.7942 C14.4894,9.4052 14.2374,9.0882 13.9244,8.8442 C13.6044,8.6142 13.2394,8.4922 12.8234,8.4782 C12.2754,8.4922 11.8194,8.7132 11.4554,9.1412 C11.1494,9.5892 11.0024,10.0912 11.0154,10.6452 C11.0154,11.3762 11.2294,12.1382 11.6584,12.9302 C11.8654,13.2982 12.1324,13.6132 12.4614,13.8692 C12.7894,14.1252 13.1634,14.2542 13.5854,14.2542 L13.5854,14.2542 Z M16.4074,20.1852 C16.4074,19.6722 16.2384,19.2242 15.9044,18.8432 C15.5494,18.4812 14.9954,18.0362 14.2424,17.5102 C14.1124,17.4972 13.9624,17.4912 13.7874,17.4912 C13.6844,17.4782 13.4204,17.4912 12.9954,17.5302 C12.5764,17.5892 12.1474,17.6842 11.7094,17.8172 C11.6064,17.8562 11.4614,17.9152 11.2754,17.9942 C11.0884,18.0802 10.8974,18.2022 10.7044,18.3612 C10.5174,18.5252 10.3594,18.7272 10.2304,18.9722 C10.0814,19.2272 10.0084,19.5372 10.0084,19.9002 C10.0084,20.6102 10.3314,21.1962 10.9754,21.6572 C11.5864,22.1182 12.4254,22.3542 13.4874,22.3672 C14.4424,22.3532 15.1694,22.1442 15.6724,21.7362 C16.1614,21.3332 16.4074,20.8172 16.4074,20.1852 L16.4074,20.1852 Z M15.6244,8.5362 C15.7514,8.6152 15.8944,8.7312 16.0544,8.8822 C16.2064,9.0402 16.3554,9.2352 16.5014,9.4652 C16.6414,9.6812 16.7644,9.9392 16.8734,10.2342 C16.9614,10.5302 17.0064,10.8752 17.0064,11.2702 C16.9944,11.9952 16.8344,12.5732 16.5284,13.0082 C16.3764,13.2182 16.2174,13.4132 16.0484,13.5902 C15.8624,13.7682 15.6634,13.9492 15.4524,14.1332 C15.3324,14.2582 15.2204,14.4002 15.1184,14.5562 C14.9974,14.7212 14.9374,14.9122 14.9374,15.1292 C14.9374,15.3392 14.9984,15.5132 15.1234,15.6522 C15.2274,15.7842 15.3304,15.8992 15.4294,15.9982 L16.1154,16.5602 C16.5414,16.9092 16.9154,17.2942 17.2374,17.7142 C17.5414,18.1422 17.6984,18.7012 17.7114,19.3922 C17.7114,20.3732 17.2784,21.2422 16.4124,21.9992 C15.5154,22.7812 14.2194,23.1862 12.5264,23.2132 C11.1094,23.1982 10.0494,22.8972 9.3514,22.3072 C8.6454,21.7552 8.2934,21.0952 8.2934,20.3272 C8.2934,19.9522 8.4074,19.5342 8.6374,19.0762 C8.8614,18.6152 9.2634,18.2112 9.8464,17.8642 C10.5024,17.4902 11.1904,17.2392 11.9114,17.1162 C12.6254,17.0112 13.2184,16.9512 13.6904,16.9392 C13.5444,16.7482 13.4154,16.5412 13.3014,16.3232 C13.1674,16.1132 13.1014,15.8562 13.1014,15.5592 C13.1014,15.3802 13.1264,15.2322 13.1774,15.1132 C13.2224,14.9872 13.2634,14.8712 13.3014,14.7652 C13.0714,14.7922 12.8544,14.8062 12.6504,14.8062 C11.5724,14.7922 10.7514,14.4542 10.1874,13.7892 C9.5964,13.1712 9.3014,12.4502 9.3014,11.6282 C9.3014,10.6352 9.7204,9.7332 10.5574,8.9242 C11.1324,8.4502 11.7304,8.1412 12.3514,7.9972 C12.9654,7.8722 13.5394,7.8092 14.0774,7.8092 L18.1244,7.8092 L16.8754,8.5382 L15.6244,8.5382 L15.6244,8.5362 Z M20.9074714,15.2352952 L20.9074714,17.2729143 L19.9080429,17.2729143 L19.9080429,15.2352952 L17.8861381,15.2352952 L17.8861381,14.2264381 L19.9080429,14.2264381 L19.9080429,12.2024381 L20.9074714,12.2024381 L20.9074714,14.2264381 L22.9398524,14.2264381 L22.9398524,15.2352952 L20.9074714,15.2352952 Z" id="Fill-5"></path>
                        </g>
                    </g>
                </g>
            </g>
        </g>
    </g>
</svg>