<?xml version="1.0" encoding="utf-8"?>
<!-- Generator: Avocode 2.6.0 - http://avocode.com -->
<svg height="31" width="31" xmlns:xlink="http://www.w3.org/1999/xlink" xmlns="http://www.w3.org/2000/svg" viewBox="0 0 31 31">
    <path fill="#ffffff" fill-rule="evenodd" d="M 16.73 22.6 L 13.8 22.6 L 13.8 15.51 L 12.34 15.51 L 12.34 13.07 L 13.8 13.07 L 13.8 11.6 C 13.8 9.61 14.63 8.43 16.98 8.43 L 18.94 8.43 L 18.94 10.87 L 17.71 10.87 C 16.8 10.87 16.74 11.21 16.74 11.85 L 16.73 13.07 L 18.95 13.07 L 18.69 15.51 L 16.73 15.51 L 16.73 22.6 L 16.73 22.6 Z M 16.73 22.6" />
    <path fill="#ffffff" fill-rule="evenodd" d="M 15.64 1.73 C 8.04 1.73 1.86 7.91 1.86 15.51 C 1.86 23.11 8.04 29.29 15.64 29.29 C 23.24 29.29 29.43 23.11 29.43 15.51 C 29.43 7.91 23.24 1.73 15.64 1.73 M 15.64 30.32 C 7.48 30.32 0.83 23.68 0.83 15.51 C 0.83 7.34 7.48 0.7 15.64 0.7 C 23.81 0.7 30.46 7.34 30.46 15.51 C 30.46 23.68 23.81 30.32 15.64 30.32" />
</svg>