<?xml version="1.0" encoding="UTF-8" standalone="no"?>
<svg width="26px" height="26px" viewBox="0 0 26 26" version="1.1" xmlns="http://www.w3.org/2000/svg" xmlns:xlink="http://www.w3.org/1999/xlink">
    <!-- Generator: Sketch 41 (35326) - http://www.bohemiancoding.com/sketch -->
    <title>Artboard</title>
    <desc>Created with Sketch.</desc>
    <defs>
        <polygon id="path-1" points="24 12.000048 24 24 0 24 0 12.000048 0 9.6e-05 24 9.6e-05"></polygon>
    </defs>
    <g id="Page-1" stroke="none" stroke-width="1" fill="none" fill-rule="evenodd">
        <g id="Artboard">
            <g id="Page-1-Copy-4" transform="translate(1.000000, 1.000000)">
                <path d="M12.88344,17.739696 L10.50984,17.739696 L10.50984,11.998896 L9.3228,11.998896 L9.3228,10.020336 L10.50984,10.020336 L10.50984,8.832816 C10.50984,7.219056 11.17944,6.260496 13.08264,6.260496 L14.66712,6.260496 L14.66712,8.237136 L13.67688,8.237136 C12.93576,8.237136 12.88632,8.513616 12.88632,9.031536 L12.88344,10.021776 L14.6772,10.021776 L14.46744,12.000336 L12.88296,12.000336 L12.88296,17.739696 L12.88344,17.739696 Z" id="Fill-1" fill="#FFFFFF"></path>
                <g id="Group-5">
                    <mask id="mask-2" fill="white">
                        <use xlink:href="#path-1"></use>
                    </mask>
                    <g id="Clip-4"></g>
                    <path d="M12,0.833856 C5.84304,0.833856 0.83376,5.842656 0.83376,12.000096 C0.83376,18.157056 5.84304,23.166336 12,23.166336 C18.15696,23.166336 23.16624,18.157056 23.16624,12.000096 C23.16624,5.842656 18.15696,0.833856 12,0.833856 M12,24.000096 C5.3832,24.000096 0,18.616896 0,12.000096 C0,5.383296 5.3832,9.6e-05 12,9.6e-05 C18.6168,9.6e-05 24,5.383296 24,12.000096 C24,18.616896 18.6168,24.000096 12,24.000096" id="Fill-3" fill="#FFFFFF" mask="url(#mask-2)"></path>
                </g>
            </g>
        </g>
    </g>
</svg>