<?xml version="1.0" encoding="utf-8"?>
<!-- Generator: Avocode 2.6.0 - http://avocode.com -->
<svg height="31" width="31" xmlns:xlink="http://www.w3.org/1999/xlink" xmlns="http://www.w3.org/2000/svg" viewBox="0 0 31 31">
    <path fill="#ffffff" fill-rule="evenodd" d="M 13.35 22.47 C 13.68 21.96 14.04 21.29 14.22 20.62 C 14.33 20.24 14.83 18.25 14.83 18.25 C 15.13 18.82 16.01 19.33 16.94 19.33 C 19.71 19.33 21.59 16.79 21.59 13.41 C 21.59 10.85 19.43 8.46 16.13 8.46 C 12.03 8.46 9.96 11.4 9.96 13.86 C 9.96 15.34 10.52 16.66 11.73 17.16 C 11.93 17.24 12.1 17.16 12.16 16.94 C 12.2 16.79 12.3 16.4 12.34 16.25 C 12.39 16.03 12.37 15.95 12.21 15.76 C 11.87 15.35 11.64 14.82 11.64 14.07 C 11.64 11.89 13.27 9.94 15.89 9.94 C 18.21 9.94 19.48 11.35 19.48 13.24 C 19.48 15.73 18.38 17.84 16.75 17.84 C 15.85 17.84 15.17 17.09 15.39 16.17 C 15.64 15.08 16.15 13.9 16.15 13.11 C 16.15 12.4 15.77 11.81 14.98 11.81 C 14.06 11.81 13.32 12.77 13.32 14.05 C 13.32 14.86 13.59 15.41 13.59 15.41 C 13.59 15.41 12.65 19.42 12.48 20.12 C 12.33 20.77 12.31 21.5 12.33 22.1 C 12.33 22.1 12.58 22.8 13.35 22.47" />
    <path fill="#ffffff" fill-rule="evenodd" d="M 15.78 1.73 C 8.18 1.73 2 7.91 2 15.51 C 2 23.11 8.18 29.29 15.78 29.29 C 23.38 29.29 29.56 23.11 29.56 15.51 C 29.56 7.91 23.38 1.73 15.78 1.73 M 15.78 30.32 C 7.61 30.32 0.97 23.68 0.97 15.51 C 0.97 7.34 7.61 0.7 15.78 0.7 C 23.94 0.7 30.59 7.34 30.59 15.51 C 30.59 23.68 23.94 30.32 15.78 30.32" />
</svg>