<?xml version="1.0" encoding="UTF-8" standalone="no"?>
<svg width="26px" height="26px" viewBox="0 0 26 26" version="1.1" xmlns="http://www.w3.org/2000/svg" xmlns:xlink="http://www.w3.org/1999/xlink">
    <!-- Generator: Sketch 41 (35326) - http://www.bohemiancoding.com/sketch -->
    <title>Artboard</title>
    <desc>Created with Sketch.</desc>
    <defs>
        <polygon id="path-1" points="24 11.999952 24 23.999904 0 23.999904 0 11.999952 0 0 24 0"></polygon>
    </defs>
    <g id="Page-1" stroke="none" stroke-width="1" fill="none" fill-rule="evenodd">
        <g id="Artboard">
            <g id="icon-ig" transform="translate(6.000000, 7.000000)" fill="#FFFFFF">
                <path d="M6.70944444,1.42176 C8.23460784,1.42176 8.4151634,1.42756364 9.0175817,1.45409455 C9.38027673,1.45812628 9.73955361,1.52305255 10.0796732,1.64602909 C10.5779157,1.83351158 10.9717194,2.21777594 11.1638562,2.70394909 C11.2898857,3.0358297 11.3564237,3.38640354 11.3605556,3.74031273 C11.3881699,4.32813818 11.3936928,4.50432 11.3936928,5.99253818 C11.3936928,7.48075636 11.3877451,7.65693818 11.3605556,8.24476364 C11.3564237,8.59867282 11.2898857,8.94924666 11.1638562,9.28112727 C10.9717194,9.76730042 10.5779157,10.1515648 10.0796732,10.3390473 C9.73955361,10.4620238 9.38027673,10.5269501 9.0175817,10.5309818 C8.41558824,10.5579273 8.23460784,10.5633164 6.70944444,10.5633164 C5.18428105,10.5633164 5.00372549,10.5575127 4.40130719,10.5309818 C4.03861216,10.5269501 3.67933528,10.4620238 3.33921569,10.3390473 C2.84097322,10.1515648 2.44716945,9.76730042 2.25503268,9.28112727 C2.12900323,8.94924666 2.06246516,8.59867282 2.05833333,8.24476364 C2.03071895,7.65693818 2.02519608,7.48075636 2.02519608,5.99253818 C2.02519608,4.50432 2.03114379,4.32813818 2.05833333,3.74031273 C2.06246516,3.38640354 2.12900323,3.0358297 2.25503268,2.70394909 C2.44775502,2.21799625 2.84202177,1.83418356 3.3404902,1.64727273 C3.68060979,1.52429619 4.03988667,1.45936992 4.4025817,1.45533818 C5.005,1.42839273 5.18555556,1.42300364 6.71071895,1.42300364 L6.70944444,1.42176 Z M6.71071895,0.418974545 C5.15964052,0.418974545 4.96506536,0.425192727 4.35584967,0.452552727 C3.88194049,0.46180206 3.41307066,0.549407764 2.96918301,0.711643636 C2.20197527,1.00119813 1.59546822,1.5930133 1.29872549,2.34163636 C1.13246209,2.77477138 1.04268156,3.23228341 1.03320261,3.69471273 C1.00558824,4.28917091 0.99879085,4.47903273 0.99879085,5.99253818 C0.99879085,7.50604364 1.0051634,7.69590545 1.03320261,8.29036364 C1.04268156,8.75279295 1.13246209,9.21030498 1.29872549,9.64344 C1.59546822,10.3920631 2.20197527,10.9838782 2.96918301,11.2734327 C3.41307066,11.4356686 3.88194049,11.5232743 4.35584967,11.5325236 C4.96506536,11.5594691 5.15964052,11.5661018 6.71071895,11.5661018 C8.26179739,11.5661018 8.45637255,11.5598836 9.06558824,11.5325236 C9.53949742,11.5232743 10.0083672,11.4356686 10.4522549,11.2734327 C11.2194626,10.9838782 11.8259697,10.3920631 12.1227124,9.64344 C12.2889758,9.21030498 12.3787563,8.75279295 12.3882353,8.29036364 C12.4158497,7.69590545 12.4226471,7.50604364 12.4226471,5.99253818 C12.4226471,4.47903273 12.4162745,4.28917091 12.3882353,3.69471273 C12.3787563,3.23228341 12.2889758,2.77477138 12.1227124,2.34163636 C11.8260807,1.59213377 11.2190141,0.999622023 10.4509804,0.709985455 C10.0070927,0.547749582 9.53822291,0.460143878 9.06431373,0.450894545 C8.45509804,0.423949091 8.26052288,0.417316364 6.70944444,0.417316364 L6.71071895,0.418974545 Z" id="Shape"></path>
                <path d="M6.70944444,3.12885818 C5.09049209,3.12885818 3.7780719,4.4094866 3.7780719,5.98922182 C3.7780719,7.56895703 5.09049209,8.84958545 6.70944444,8.84958545 C8.3283968,8.84958545 9.64081699,7.56895703 9.64081699,5.98922182 C9.64081699,5.23060621 9.33197684,4.50306153 8.78223785,3.96663929 C8.23249886,3.43021706 7.48689278,3.12885818 6.70944444,3.12885818 L6.70944444,3.12885818 Z M6.70944444,7.84887273 C5.65782931,7.84887273 4.8053268,7.01702105 4.8053268,5.99088 C4.8053268,4.96473895 5.65782931,4.13288727 6.70944444,4.13288727 C7.76105958,4.13288727 8.61356209,4.96473895 8.61356209,5.99088 C8.61356209,7.01702105 7.76105958,7.84887273 6.70944444,7.84887273 Z" id="Shape"></path>
                <ellipse id="Oval" cx="9.75849673" cy="3.01568727" rx="0.685261438" ry="0.668661818"></ellipse>
            </g>
            <g id="Page-1" transform="translate(1.000000, 1.000000)">
                <g id="Group-5">
                    <mask id="mask-2" fill="white">
                        <use xlink:href="#path-1"></use>
                    </mask>
                    <g id="Clip-4"></g>
                    <path d="M12,0.83376 C5.84304,0.83376 0.83376,5.84256 0.83376,12 C0.83376,18.15696 5.84304,23.16624 12,23.16624 C18.15696,23.16624 23.16624,18.15696 23.16624,12 C23.16624,5.84256 18.15696,0.83376 12,0.83376 M12,24 C5.3832,24 0,18.6168 0,12 C0,5.3832 5.3832,0 12,0 C18.6168,0 24,5.3832 24,12 C24,18.6168 18.6168,24 12,24" id="Fill-3" fill="#FFFFFF" mask="url(#mask-2)"></path>
                </g>
            </g>
        </g>
    </g>
</svg>